HIERARCHY
ROOT root
{
	OFFSET 0.00 0.00 0.00
	CHANNELS 6 Xposition Yposition Zposition Zrotation Xrotation Yrotation
	JOINT lowerback
	{
		OFFSET 0 0 0
		CHANNELS 6 Xposition Yposition Zposition Zrotation Xrotation Yrotation
		JOINT upperback
		{
			OFFSET -0.214371 12.3768 -1.12219
			CHANNELS 6 Xposition Yposition Zposition Zrotation Xrotation Yrotation
			JOINT thorax
			{
				OFFSET -0.00137213 12.3873 0.296195
				CHANNELS 6 Xposition Yposition Zposition Zrotation Xrotation Yrotation
				JOINT lowerneck
				{
					OFFSET 0.0883157 12.5016 0.82912
					CHANNELS 6 Xposition Yposition Zposition Zrotation Xrotation Yrotation
					JOINT upperneck
					{
						OFFSET -1 10.1794 0.943522
						CHANNELS 6 Xposition Yposition Zposition Zrotation Xrotation Yrotation
						JOINT head
						{
							OFFSET 0.667525 10.2797 -1.57149
							CHANNELS 6 Xposition Yposition Zposition Zrotation Xrotation Yrotation
							End Site
							{
								OFFSET 0 0 0
							}
						}
					}
				}
				JOINT lclavicle
				{
					OFFSET 0.0883157 12.5016 0.82912
					CHANNELS 6 Xposition Yposition Zposition Zrotation Xrotation Yrotation
					JOINT lhumerus
					{
						OFFSET 20.61 4.45006 1.43784
						CHANNELS 6 Xposition Yposition Zposition Zrotation Xrotation Yrotation
						JOINT lradius
						{
							OFFSET 0 -30.3438 0
							CHANNELS 6 Xposition Yposition Zposition Zrotation Xrotation Yrotation
							JOINT lwrist
							{
								OFFSET 0 -18.964 0
								CHANNELS 6 Xposition Yposition Zposition Zrotation Xrotation Yrotation
								JOINT lhand
								{
									OFFSET 0 -9.48199 0
									CHANNELS 6 Xposition Yposition Zposition Zrotation Xrotation Yrotation
									JOINT lfingers
									{
										OFFSET 0 -3.17138 0
										CHANNELS 6 Xposition Yposition Zposition Zrotation Xrotation Yrotation
										End Site
										{
											OFFSET 0 -2.55685 0
										}
									}
								}
								JOINT lthumb
								{
									OFFSET 0 -9.48199 0
									CHANNELS 6 Xposition Yposition Zposition Zrotation Xrotation Yrotation
									End Site
									{
										OFFSET 0 -3.67114 0
									}
								}
							}
						}
					}
				}
				JOINT rclavicle
				{
					OFFSET 0.0883157 12.5016 0.82912
					CHANNELS 6 Xposition Yposition Zposition Zrotation Xrotation Yrotation
					JOINT rhumerus
					{
						OFFSET -20.61 4.45 1.44
						CHANNELS 6 Xposition Yposition Zposition Zrotation Xrotation Yrotation
						JOINT rradius
						{
							OFFSET 0 -29.5102 0
							CHANNELS 6 Xposition Yposition Zposition Zrotation Xrotation Yrotation
							JOINT rwrist
							{
								OFFSET 0 -19.2342 0
								CHANNELS 6 Xposition Yposition Zposition Zrotation Xrotation Yrotation
								JOINT rhand
								{
									OFFSET 0 -9.61712 0
									CHANNELS 6 Xposition Yposition Zposition Zrotation Xrotation Yrotation
									JOINT rfingers
									{
										OFFSET 0 -3.29215 0
										CHANNELS 6 Xposition Yposition Zposition Zrotation Xrotation Yrotation
										End Site
										{
											OFFSET 0 -2.557 0
										}
									}
								}
								JOINT rthumb
								{
									OFFSET 0 -9.61712 0
									CHANNELS 6 Xposition Yposition Zposition Zrotation Xrotation Yrotation
									End Site
									{
										OFFSET 0 -3.671 0
									}
								}
							}
						}
					}
				}
			}
		}
	}
	JOINT rfemur
	{
		OFFSET -8.46272 -9.62775 4.76248
		CHANNELS 6 Xposition Yposition Zposition Zrotation Xrotation Yrotation
		JOINT rtibia
		{
			OFFSET 1.00552e-005 -38.0331 0
			CHANNELS 6 Xposition Yposition Zposition Zrotation Xrotation Yrotation
			JOINT rfoot
			{
				OFFSET 1.14428e-005 -43.2815 0
				CHANNELS 6 Xposition Yposition Zposition Zrotation Xrotation Yrotation
				JOINT rtoes
				{
					OFFSET 0 -14.1868 -3.08763
					CHANNELS 6 Xposition Yposition Zposition Zrotation Xrotation Yrotation
					End Site
					{
						OFFSET 0 -7.27332 0
					}
				}
			}
		}
	}
	JOINT lfemur
	{
		OFFSET 9.10607 -9.62778 4.76249
		CHANNELS 6 Xposition Yposition Zposition Zrotation Xrotation Yrotation
		JOINT ltibia
		{
			OFFSET -1.01399e-005 -38.3535 0
			CHANNELS 6 Xposition Yposition Zposition Zrotation Xrotation Yrotation
			JOINT lfoot
			{
				OFFSET -1.12937e-005 -42.7176 0
				CHANNELS 6 Xposition Yposition Zposition Zrotation Xrotation Yrotation
				JOINT ltoes
				{
					OFFSET 0 -13.9965 -2.83857
					CHANNELS 6 Xposition Yposition Zposition Zrotation Xrotation Yrotation
					End Site
					{
						OFFSET 0 -7.16348 0
					}
				}
			}
		}
	}
}
MOTION
Frames: 6
Frame Time: 0.00833333
-3.60818	98.4997	163.888	-8.31714	2.88554	-7.86135	0 0 0 -0.0283386	3.64268	-0.00575699	-0.214371 12.3768 -1.12219 -2.89838	0.649539	-0.102332	-0.00137213 12.3873 0.296195 -2.96217	-1.3763	-0.0743947	0.0883157 12.5016 0.82912 -5.52235	-13.5977	-2.48243	-1 10.1794 0.943522 14.4507	5.88206	-3.94545	0.667525 10.2797 -1.57149 4.98682	4.4078	-1.34698	0.0883157 12.5016 0.82912 -15	0	-0	20.61 4.45006 1.43784 15.6669	5.41334	-161.485	0 -30.3438 0 -0	38.0307	-0	0 -18.964 0 1.39527e-014	-1.06107e-015	-98.6977	0 -9.48199 0 1.22245	4.37968	-2.58917e-014	0 -3.17138 0 -0	7.12502	-0	0 -9.48199 0 25	15	-1.36605e-015	0.0883157 12.5016 0.82912 15	0	-0	-20.61 4.45 1.44 -16.7599	9.91208	-173.112	0 -29.5102 0 -0	24.1476	-0	0 -19.2342 0 9.43861e-016	-3.51493e-015	120.062	0 -9.61712 0 1.22	4.38	-0	0 -3.29215 0 -0	7.12502	-0	0 -9.61712 0 25	15	-7.97034e-015	-8.46272 -9.62775 4.76248 3.39851	-8.70322	-1.67069	1.00552e-005 -38.0331 0 -0	67.4206	-0	1.14428e-005 -43.2815 0 -23.9766	-72.7468	-24.9711	0 -14.1868 -3.08763 -0	-38.5999	-0	9.10607 -9.62778 4.76249 9.22194	-16.3353	10.3288	-1.01399e-005 -38.3535 0 -0	33.4003	-0	-1.12937e-005 -42.7176 0 42.441	-75.6743	43.3434	0 -13.9965 -2.83857 -0	-18.4655	-0
-3.53817	98.8852	165.281	-8.33819	2.87858	-7.67814	0 0 0 -0.0134324	3.34623	-0.352366	-0.214371 12.3768 -1.12219 -2.65785	0.563248	-0.546775	-0.00137213 12.3873 0.296195 -2.70308	-1.31681	-0.293298	0.0883157 12.5016 0.82912 -5.1396	-13.9571	-2.29312	-1 10.1794 0.943522 14.266	6.15862	-3.76594	0.667525 10.2797 -1.57149 4.87799	4.52118	-1.238	0.0883157 12.5016 0.82912 -15	0	-0	20.61 4.45006 1.43784 15.8075	4.39323	-164.08	0 -30.3438 0 -0	40.8248	-0	0 -18.964 0 1.39632e-014	-9.89985e-016	-98.1109	0 -9.48199 0 1.22245	4.37968	-2.58917e-014	0 -3.17138 0 -0	7.12502	-0	0 -9.48199 0 25	15	-1.36605e-015	0.0883157 12.5016 0.82912 15	0	-0	-20.61 4.45 1.44 -17.8235	10.9031	-173.96	0 -29.5102 0 -0	23.0037	-0	0 -19.2342 0 9.72525e-016	-3.56399e-015	120.526	0 -9.61712 0 1.22	4.38	-0	0 -3.29215 0 -0	7.12502	-0	0 -9.61712 0 25	15	-7.97034e-015	-8.46272 -9.62775 4.76248 3.71373	-10.7108	-1.73267	1.00552e-005 -38.0331 0 -0	67.7203	-0	1.14428e-005 -43.2815 0 -26.6597	-74.3235	-27.5403	0 -14.1868 -3.08763 -0	-39.564	-0	9.10607 -9.62778 4.76249 8.5752	-14.6836	9.23668	-1.01399e-005 -38.3535 0 -0	32.0594	-0	-1.12937e-005 -42.7176 0 46.5402	-75.5163	47.4631	0 -13.9965 -2.83857 -0	-18.8794	-0
-3.48107	99.2171	166.657	-8.30655	2.90865	-7.42615	0 0 0 -0.0474854	3.04944	-0.706799	-0.214371 12.3768 -1.12219 -2.43787	0.490087	-1.00455	-0.00137213 12.3873 0.296195 -2.44039	-1.24067	-0.519067	0.0883157 12.5016 0.82912 -4.74925	-14.2858	-2.10114	-1 10.1794 0.943522 14.0735	6.32108	-3.57452	0.667525 10.2797 -1.57149 4.7685	4.59463	-1.12877	0.0883157 12.5016 0.82912 -15	0	-0	20.61 4.45006 1.43784 16.1211	3.39822	-166.736	0 -30.3438 0 -0	43.7648	-0	0 -18.964 0 1.39698e-014	-9.42533e-016	-97.7197	0 -9.48199 0 1.22245	4.37968	-2.58917e-014	0 -3.17138 0 -0	7.12502	-0	0 -9.48199 0 25	15	-1.36605e-015	0.0883157 12.5016 0.82912 15	0	-0	-20.61 4.45 1.44 -18.955	11.993	-174.61	0 -29.5102 0 -0	22.2964	-0	0 -19.2342 0 9.76883e-016	-3.57137e-015	120.596	0 -9.61712 0 1.22	4.38	-0	0 -3.29215 0 -0	7.12502	-0	0 -9.61712 0 25	15	-7.97034e-015	-8.46272 -9.62775 4.76248 3.98323	-12.7557	-1.86202	1.00552e-005 -38.0331 0 -0	67.8717	-0	1.14428e-005 -43.2815 0 -30.355	-75.7265	-31.1443	0 -14.1868 -3.08763 -0	-40.2783	-0	9.10607 -9.62778 4.76249 7.9221	-13.2057	8.1556	-1.01399e-005 -38.3535 0 -0	30.9004	-0	-1.12937e-005 -42.7176 0 50.7652	-75.3505	51.6896	0 -13.9965 -2.83857 -0	-19.3027	-0
-3.43599	99.492	168.018	-8.21635	2.96981	-7.11972	0 0 0 -0.134734	2.76012	-1.06138	-0.214371 12.3768 -1.12219 -2.24381	0.430994	-1.46565	-0.00137213 12.3873 0.296195 -2.17749	-1.15052	-0.74673	0.0883157 12.5016 0.82912 -4.36327	-14.5786	-1.91228	-1 10.1794 0.943522 13.8857	6.37708	-3.37879	0.667525 10.2797 -1.57149 4.66341	4.63079	-1.02266	0.0883157 12.5016 0.82912 -15	0	-0	20.61 4.45006 1.43784 16.6096	2.39971	-169.357	0 -30.3438 0 -0	46.8057	-0	0 -18.964 0 1.39731e-014	-9.17965e-016	-97.5173	0 -9.48199 0 1.22245	4.37968	-2.58917e-014	0 -3.17138 0 -0	7.12502	-0	0 -9.48199 0 25	15	-1.36605e-015	0.0883157 12.5016 0.82912 15	0	-0	-20.61 4.45 1.44 -20.1412	13.1831	-175.048	0 -29.5102 0 -0	22.0063	-0	0 -19.2342 0 9.5592e-016	-3.53568e-015	120.258	0 -9.61712 0 1.22	4.38	-0	0 -3.29215 0 -0	7.12502	-0	0 -9.61712 0 25	15	-7.97034e-015	-8.46272 -9.62775 4.76248 4.18654	-14.8317	-2.0434	1.00552e-005 -38.0331 0 -0	67.8903	-0	1.14428e-005 -43.2815 0 -35.0608	-76.9224	-35.7718	0 -14.1868 -3.08763 -0	-40.7496	-0	9.10607 -9.62778 4.76249 7.25609	-11.8998	7.1088	-1.01399e-005 -38.3535 0 -0	29.9386	-0	-1.12937e-005 -42.7176 0 55.0541	-75.1852	55.9581	0 -13.9965 -2.83857 -0	-19.7336	-0
-3.39975	99.7087	169.372	-8.06386	3.05443	-6.77528	0 0 0 -0.277297	2.48753	-1.4083	-0.214371 12.3768 -1.12219 -2.08003	0.386326	-1.91978	-0.00137213 12.3873 0.296195 -1.9177	-1.05045	-0.971167	0.0883157 12.5016 0.82912 -3.99332	-14.8334	-1.73202	-1 10.1794 0.943522 13.7143	6.33995	-3.18639	0.667525 10.2797 -1.57149 4.56733	4.63434	-0.922748	0.0883157 12.5016 0.82912 -15	0	-0	20.61 4.45006 1.43784 17.2668	1.3726	-171.858	0 -30.3438 0 -0	49.9079	-0	0 -18.964 0 1.39737e-014	-9.13193e-016	-97.478	0 -9.48199 0 1.22245	4.37968	-2.58917e-014	0 -3.17138 0 -0	7.12502	-0	0 -9.48199 0 25	15	-1.36605e-015	0.0883157 12.5016 0.82912 15	0	-0	-20.61 4.45 1.44 -21.3701	14.4695	-175.273	0 -29.5102 0 -0	22.0998	-0	0 -19.2342 0 9.11064e-016	-3.45764e-015	119.523	0 -9.61712 0 1.22	4.38	-0	0 -3.29215 0 -0	7.12502	-0	0 -9.61712 0 25	15	-7.97034e-015	-8.46272 -9.62775 4.76248 4.30963	-16.9295	-2.2579	1.00552e-005 -38.0331 0 -0	67.7876	-0	1.14428e-005 -43.2815 0 -40.6223	-77.8862	-41.2609	0 -14.1868 -3.08763 -0	-40.9963	-0	9.10607 -9.62778 4.76249 6.57055	-10.7528	6.11779	-1.01399e-005 -38.3535 0 -0	29.1733	-0	-1.12937e-005 -42.7176 0 59.3293	-75.0241	60.1906	0 -13.9965 -2.83857 -0	-20.1685	-0
-3.37085	99.8662	170.716	-7.8471	3.15359	-6.41035	0 0 0 -0.475747	2.24201	-1.7401	-0.214371 12.3768 -1.12219 -1.94976	0.356042	-2.35705	-0.00137213 12.3873 0.296195 -1.66379	-0.945668	-1.18747	0.0883157 12.5016 0.82912 -3.64977	-15.05	-1.56508	-1 10.1794 0.943522 13.5695	6.22674	-3.00428	0.667525 10.2797 -1.57149 4.48407	4.61126	-0.831583	0.0883157 12.5016 0.82912 -15	0	-0	20.61 4.45006 1.43784 18.0809	0.296268	-174.175	0 -30.3438 0 -0	53.0387	-0	0 -18.964 0 1.39724e-014	-9.23331e-016	-97.5615	0 -9.48199 0 1.22245	4.37968	-2.58917e-014	0 -3.17138 0 -0	7.12502	-0	0 -9.48199 0 25	15	-1.36605e-015	0.0883157 12.5016 0.82912 15	0	-0	-20.61 4.45 1.44 -22.6316	15.8434	-175.296	0 -29.5102 0 -0	22.5311	-0	0 -19.2342 0 8.46452e-016	-3.34098e-015	118.434	0 -9.61712 0 1.22	4.38	-0	0 -3.29215 0 -0	7.12502	-0	0 -9.61712 0 25	15	-7.97034e-015	-8.46272 -9.62775 4.76248 4.34512	-19.0373	-2.4845	1.00552e-005 -38.0331 0 -0	67.5713	-0	1.14428e-005 -43.2815 0 -46.7086	-78.612	-47.2768	0 -14.1868 -3.08763 -0	-41.047	-0	9.10607 -9.62778 4.76249 5.85978	-9.74118	5.20122	-1.01399e-005 -38.3535 0 -0	28.5876	-0	-1.12937e-005 -42.7176 0 63.4956	-74.8676	64.2944	0 -13.9965 -2.83857 -0	-20.6011	-0
